<?xml version="1.0" standalone="no"?>
<!DOCTYPE svg PUBLIC "-//W3C//DTD SVG 20010904//EN"
 "http://www.w3.org/TR/2001/REC-SVG-20010904/DTD/svg10.dtd">
<svg version="1.0" xmlns="http://www.w3.org/2000/svg"
 width="356.000000pt" height="356.000000pt" viewBox="0 0 356.000000 356.000000"
 preserveAspectRatio="xMidYMid meet">
<metadata>
Created by potrace 1.11, written by Peter Selinger 2001-2013
</metadata>
<g transform="translate(0.000000,356.000000) scale(0.100000,-0.100000)"
fill="#000000" stroke="none">
<path d="M1597 3188 c-14 -93 -2 -275 28 -423 12 -56 67 -158 110 -201 73 -72
206 -133 550 -251 377 -128 544 -218 695 -371 130 -133 190 -280 191 -467 0
-194 -104 -376 -295 -519 -27 -20 -53 -36 -58 -36 -6 0 -22 -8 -36 -19 -87
-60 -432 -167 -607 -186 -33 -4 -68 -9 -77 -10 -89 -17 -392 -23 -531 -11
-107 10 -297 35 -337 46 -19 5 -48 11 -65 13 -123 19 -302 83 -410 146 -86 51
-199 166 -232 236 -54 120 -29 243 73 348 108 111 317 212 484 233 25 3 52 7
60 9 19 6 86 15 180 24 110 11 472 6 565 -8 44 -6 94 -14 110 -16 141 -21 293
-66 377 -113 97 -52 146 -97 184 -165 25 -45 29 -62 29 -132 0 -69 -4 -87 -27
-125 -30 -52 -85 -112 -139 -152 -37 -28 -207 -116 -237 -124 -9 -2 -48 -14
-86 -27 -70 -24 -77 -35 -21 -32 57 4 172 16 196 21 13 2 40 7 59 10 93 14
234 58 317 99 297 146 403 446 245 690 -71 109 -224 232 -386 309 -120 57
-275 114 -356 131 -8 2 -50 11 -94 20 -79 16 -93 18 -246 32 -199 17 -561 3
-715 -27 -27 -5 -68 -12 -90 -16 -64 -9 -248 -61 -332 -95 -165 -65 -294 -140
-423 -245 -179 -145 -261 -323 -246 -536 12 -168 59 -272 175 -389 175 -175
472 -314 834 -389 113 -23 187 -34 332 -47 109 -11 507 -10 630 1 55 5 116 10
135 12 84 7 302 49 370 71 25 8 54 16 65 18 75 11 381 144 471 205 25 16 47
30 50 30 15 0 139 102 206 171 221 224 318 511 272 799 -47 290 -291 576 -649
758 -161 82 -316 143 -840 329 -130 46 -238 97 -287 135 -50 40 -100 118 -130
202 -24 66 -34 75 -41 34z"/>
</g>
</svg>
